<mxfile host="app.diagrams.net" modified="2023-05-15T23:10:14.983Z" agent="Mozilla/5.0 (Windows NT 10.0; Win64; x64) AppleWebKit/537.36 (KHTML, like Gecko) Chrome/112.0.0.0 Safari/537.36 OPR/98.0.0.0" etag="f_q_rwhz6MCmVkZtPd6i" version="21.3.2" type="device">
  <diagram name="Страница 1" id="yu2CbQ80TW_2dO9vmuke">
    <mxGraphModel dx="1918" dy="1810" grid="1" gridSize="10" guides="1" tooltips="1" connect="1" arrows="1" fold="1" page="1" pageScale="1" pageWidth="827" pageHeight="1169" math="0" shadow="0">
      <root>
        <mxCell id="0" />
        <mxCell id="1" parent="0" />
        <mxCell id="AEzqDcAyrqlaG8UT_i8C-3" value="«Component »&lt;br&gt;Application" style="html=1;dropTarget=0;whiteSpace=wrap;" vertex="1" parent="1">
          <mxGeometry x="-220" y="-220" width="600" height="510" as="geometry" />
        </mxCell>
        <mxCell id="AEzqDcAyrqlaG8UT_i8C-4" value="" style="shape=module;jettyWidth=8;jettyHeight=4;" vertex="1" parent="AEzqDcAyrqlaG8UT_i8C-3">
          <mxGeometry x="1" width="20" height="20" relative="1" as="geometry">
            <mxPoint x="-27" y="7" as="offset" />
          </mxGeometry>
        </mxCell>
        <mxCell id="AEzqDcAyrqlaG8UT_i8C-6" value="" style="shape=requiredInterface;html=1;verticalLabelPosition=bottom;sketch=0;rotation=-180;" vertex="1" parent="1">
          <mxGeometry x="430" y="-100" width="10" height="20" as="geometry" />
        </mxCell>
        <mxCell id="AEzqDcAyrqlaG8UT_i8C-7" value="Account id" style="text;html=1;strokeColor=none;fillColor=none;align=center;verticalAlign=middle;whiteSpace=wrap;rounded=0;" vertex="1" parent="1">
          <mxGeometry x="440" y="-105" width="60" height="30" as="geometry" />
        </mxCell>
        <mxCell id="AEzqDcAyrqlaG8UT_i8C-8" value="&amp;lt;Требуемый интерфейс&amp;gt;" style="text;html=1;strokeColor=#2D7600;fillColor=#60a917;align=center;verticalAlign=middle;whiteSpace=wrap;rounded=0;fontColor=#ffffff;" vertex="1" parent="1">
          <mxGeometry x="430" y="-200" width="160" height="30" as="geometry" />
        </mxCell>
        <mxCell id="AEzqDcAyrqlaG8UT_i8C-9" value="" style="endArrow=none;html=1;rounded=0;entryX=1;entryY=0.5;entryDx=0;entryDy=0;entryPerimeter=0;exitX=1;exitY=0.25;exitDx=0;exitDy=0;" edge="1" parent="1" source="AEzqDcAyrqlaG8UT_i8C-3" target="AEzqDcAyrqlaG8UT_i8C-6">
          <mxGeometry width="50" height="50" relative="1" as="geometry">
            <mxPoint x="320" as="sourcePoint" />
            <mxPoint x="370" y="-50" as="targetPoint" />
          </mxGeometry>
        </mxCell>
        <mxCell id="AEzqDcAyrqlaG8UT_i8C-10" value="" style="rounded=0;whiteSpace=wrap;html=1;" vertex="1" parent="1">
          <mxGeometry x="370" y="-100" width="20" height="20" as="geometry" />
        </mxCell>
        <mxCell id="AEzqDcAyrqlaG8UT_i8C-13" value="«Component»&lt;br&gt;&lt;b&gt;Playlist_subscriptions&lt;/b&gt;" style="html=1;dropTarget=0;whiteSpace=wrap;" vertex="1" parent="1">
          <mxGeometry x="-10" y="-165" width="180" height="90" as="geometry" />
        </mxCell>
        <mxCell id="AEzqDcAyrqlaG8UT_i8C-14" value="" style="shape=module;jettyWidth=8;jettyHeight=4;" vertex="1" parent="AEzqDcAyrqlaG8UT_i8C-13">
          <mxGeometry x="1" width="20" height="20" relative="1" as="geometry">
            <mxPoint x="-27" y="7" as="offset" />
          </mxGeometry>
        </mxCell>
        <mxCell id="AEzqDcAyrqlaG8UT_i8C-15" value="" style="rounded=0;orthogonalLoop=1;jettySize=auto;html=1;endArrow=none;endFill=0;sketch=0;sourcePerimeterSpacing=0;targetPerimeterSpacing=0;exitX=1;exitY=0.5;exitDx=0;exitDy=0;" edge="1" target="AEzqDcAyrqlaG8UT_i8C-17" parent="1" source="AEzqDcAyrqlaG8UT_i8C-13">
          <mxGeometry relative="1" as="geometry">
            <mxPoint x="150" y="15" as="sourcePoint" />
          </mxGeometry>
        </mxCell>
        <mxCell id="AEzqDcAyrqlaG8UT_i8C-16" value="" style="rounded=0;orthogonalLoop=1;jettySize=auto;html=1;endArrow=halfCircle;endFill=0;entryX=0.5;entryY=0.5;endSize=6;strokeWidth=1;sketch=0;exitX=0;exitY=0.5;exitDx=0;exitDy=0;" edge="1" target="AEzqDcAyrqlaG8UT_i8C-17" parent="1" source="AEzqDcAyrqlaG8UT_i8C-10">
          <mxGeometry relative="1" as="geometry">
            <mxPoint x="190" y="15" as="sourcePoint" />
          </mxGeometry>
        </mxCell>
        <mxCell id="AEzqDcAyrqlaG8UT_i8C-17" value="" style="ellipse;whiteSpace=wrap;html=1;align=center;aspect=fixed;resizable=0;points=[];outlineConnect=0;sketch=0;" vertex="1" parent="1">
          <mxGeometry x="320" y="-95" width="10" height="10" as="geometry" />
        </mxCell>
        <mxCell id="AEzqDcAyrqlaG8UT_i8C-20" value="Предоставляемый интерфейс" style="text;html=1;strokeColor=#2D7600;fillColor=#60a917;align=center;verticalAlign=middle;whiteSpace=wrap;rounded=0;fontColor=#ffffff;" vertex="1" parent="1">
          <mxGeometry x="-413" y="-210" width="160" height="30" as="geometry" />
        </mxCell>
        <mxCell id="AEzqDcAyrqlaG8UT_i8C-21" value="" style="rounded=0;whiteSpace=wrap;html=1;" vertex="1" parent="1">
          <mxGeometry x="-230" y="-120" width="20" height="20" as="geometry" />
        </mxCell>
        <mxCell id="AEzqDcAyrqlaG8UT_i8C-28" value="" style="shape=providedRequiredInterface;html=1;verticalLabelPosition=bottom;sketch=0;" vertex="1" parent="1">
          <mxGeometry x="-290" y="-120" width="20" height="20" as="geometry" />
        </mxCell>
        <mxCell id="AEzqDcAyrqlaG8UT_i8C-29" value="" style="line;strokeWidth=1;fillColor=none;align=left;verticalAlign=middle;spacingTop=-1;spacingLeft=3;spacingRight=3;rotatable=0;labelPosition=right;points=[];portConstraint=eastwest;strokeColor=inherit;" vertex="1" parent="1">
          <mxGeometry x="-270" y="-114" width="40" height="8" as="geometry" />
        </mxCell>
        <mxCell id="AEzqDcAyrqlaG8UT_i8C-30" value="Список плейлистов" style="text;html=1;strokeColor=none;fillColor=none;align=center;verticalAlign=middle;whiteSpace=wrap;rounded=0;" vertex="1" parent="1">
          <mxGeometry x="-363" y="-125" width="60" height="30" as="geometry" />
        </mxCell>
        <mxCell id="AEzqDcAyrqlaG8UT_i8C-31" value="«Component»&lt;br&gt;&lt;b&gt;Playlist&lt;/b&gt;" style="html=1;dropTarget=0;whiteSpace=wrap;" vertex="1" parent="1">
          <mxGeometry x="90" y="80" width="180" height="90" as="geometry" />
        </mxCell>
        <mxCell id="AEzqDcAyrqlaG8UT_i8C-32" value="" style="shape=module;jettyWidth=8;jettyHeight=4;" vertex="1" parent="AEzqDcAyrqlaG8UT_i8C-31">
          <mxGeometry x="1" width="20" height="20" relative="1" as="geometry">
            <mxPoint x="-27" y="7" as="offset" />
          </mxGeometry>
        </mxCell>
        <mxCell id="AEzqDcAyrqlaG8UT_i8C-33" value="" style="rounded=0;orthogonalLoop=1;jettySize=auto;html=1;endArrow=none;endFill=0;sketch=0;sourcePerimeterSpacing=0;targetPerimeterSpacing=0;exitX=0.61;exitY=-0.039;exitDx=0;exitDy=0;exitPerimeter=0;" edge="1" target="AEzqDcAyrqlaG8UT_i8C-35" parent="1" source="AEzqDcAyrqlaG8UT_i8C-31">
          <mxGeometry relative="1" as="geometry">
            <mxPoint x="180" y="35" as="sourcePoint" />
          </mxGeometry>
        </mxCell>
        <mxCell id="AEzqDcAyrqlaG8UT_i8C-34" value="" style="rounded=0;orthogonalLoop=1;jettySize=auto;html=1;endArrow=halfCircle;endFill=0;entryX=0.5;entryY=0.5;endSize=6;strokeWidth=1;sketch=0;exitX=0.63;exitY=1.066;exitDx=0;exitDy=0;exitPerimeter=0;" edge="1" target="AEzqDcAyrqlaG8UT_i8C-35" parent="1" source="AEzqDcAyrqlaG8UT_i8C-13">
          <mxGeometry relative="1" as="geometry">
            <mxPoint x="220" y="35" as="sourcePoint" />
          </mxGeometry>
        </mxCell>
        <mxCell id="AEzqDcAyrqlaG8UT_i8C-35" value="" style="ellipse;whiteSpace=wrap;html=1;align=center;aspect=fixed;resizable=0;points=[];outlineConnect=0;sketch=0;" vertex="1" parent="1">
          <mxGeometry x="195" y="30" width="10" height="10" as="geometry" />
        </mxCell>
        <mxCell id="AEzqDcAyrqlaG8UT_i8C-36" value="«Component»&lt;br&gt;&lt;b&gt;Tracks_in_playlist&lt;/b&gt;" style="html=1;dropTarget=0;whiteSpace=wrap;" vertex="1" parent="1">
          <mxGeometry x="-180" y="80" width="180" height="90" as="geometry" />
        </mxCell>
        <mxCell id="AEzqDcAyrqlaG8UT_i8C-37" value="" style="shape=module;jettyWidth=8;jettyHeight=4;" vertex="1" parent="AEzqDcAyrqlaG8UT_i8C-36">
          <mxGeometry x="1" width="20" height="20" relative="1" as="geometry">
            <mxPoint x="-27" y="7" as="offset" />
          </mxGeometry>
        </mxCell>
        <mxCell id="AEzqDcAyrqlaG8UT_i8C-38" value="" style="rounded=0;orthogonalLoop=1;jettySize=auto;html=1;endArrow=none;endFill=0;sketch=0;sourcePerimeterSpacing=0;targetPerimeterSpacing=0;exitX=1;exitY=0.5;exitDx=0;exitDy=0;" edge="1" parent="1" source="AEzqDcAyrqlaG8UT_i8C-40">
          <mxGeometry relative="1" as="geometry">
            <mxPoint x="-30" y="135" as="sourcePoint" />
            <mxPoint x="30" y="120" as="targetPoint" />
          </mxGeometry>
        </mxCell>
        <mxCell id="AEzqDcAyrqlaG8UT_i8C-39" value="" style="rounded=0;orthogonalLoop=1;jettySize=auto;html=1;endArrow=halfCircle;endFill=0;endSize=6;strokeWidth=1;sketch=0;exitX=0;exitY=0.5;exitDx=0;exitDy=0;" edge="1" target="AEzqDcAyrqlaG8UT_i8C-40" parent="1" source="AEzqDcAyrqlaG8UT_i8C-40">
          <mxGeometry relative="1" as="geometry">
            <mxPoint x="60" y="135" as="sourcePoint" />
            <mxPoint x="30" y="120" as="targetPoint" />
          </mxGeometry>
        </mxCell>
        <mxCell id="AEzqDcAyrqlaG8UT_i8C-41" value="" style="rounded=0;orthogonalLoop=1;jettySize=auto;html=1;endArrow=none;endFill=0;sketch=0;sourcePerimeterSpacing=0;targetPerimeterSpacing=0;exitX=1;exitY=0.5;exitDx=0;exitDy=0;" edge="1" parent="1" source="AEzqDcAyrqlaG8UT_i8C-36" target="AEzqDcAyrqlaG8UT_i8C-40">
          <mxGeometry relative="1" as="geometry">
            <mxPoint y="125" as="sourcePoint" />
            <mxPoint x="30" y="120" as="targetPoint" />
          </mxGeometry>
        </mxCell>
        <mxCell id="AEzqDcAyrqlaG8UT_i8C-42" value="" style="rounded=0;orthogonalLoop=1;jettySize=auto;html=1;endArrow=halfCircle;endFill=0;endSize=6;strokeWidth=1;sketch=0;exitX=0;exitY=0.5;exitDx=0;exitDy=0;" edge="1" parent="1" source="AEzqDcAyrqlaG8UT_i8C-31" target="AEzqDcAyrqlaG8UT_i8C-40">
          <mxGeometry relative="1" as="geometry">
            <mxPoint x="90" y="125" as="sourcePoint" />
            <mxPoint x="30" y="120" as="targetPoint" />
          </mxGeometry>
        </mxCell>
        <mxCell id="AEzqDcAyrqlaG8UT_i8C-40" value="" style="ellipse;whiteSpace=wrap;html=1;align=center;aspect=fixed;resizable=0;points=[];outlineConnect=0;sketch=0;" vertex="1" parent="1">
          <mxGeometry x="30" y="120" width="10" height="10" as="geometry" />
        </mxCell>
        <mxCell id="AEzqDcAyrqlaG8UT_i8C-43" value="" style="rounded=0;orthogonalLoop=1;jettySize=auto;html=1;endArrow=none;endFill=0;sketch=0;sourcePerimeterSpacing=0;targetPerimeterSpacing=0;exitX=0;exitY=0.5;exitDx=0;exitDy=0;entryX=0.25;entryY=0.196;entryDx=0;entryDy=0;entryPerimeter=0;" edge="1" target="AEzqDcAyrqlaG8UT_i8C-3" parent="1" source="AEzqDcAyrqlaG8UT_i8C-13">
          <mxGeometry relative="1" as="geometry">
            <mxPoint x="10" y="5" as="sourcePoint" />
          </mxGeometry>
        </mxCell>
        <mxCell id="AEzqDcAyrqlaG8UT_i8C-44" value="" style="rounded=0;orthogonalLoop=1;jettySize=auto;html=1;endArrow=halfCircle;endFill=0;endSize=6;strokeWidth=1;sketch=0;" edge="1" parent="1" source="AEzqDcAyrqlaG8UT_i8C-45">
          <mxGeometry relative="1" as="geometry">
            <mxPoint x="50" y="5" as="sourcePoint" />
            <mxPoint x="-70" y="-120" as="targetPoint" />
          </mxGeometry>
        </mxCell>
        <mxCell id="AEzqDcAyrqlaG8UT_i8C-46" value="" style="rounded=0;orthogonalLoop=1;jettySize=auto;html=1;endArrow=halfCircle;endFill=0;endSize=6;strokeWidth=1;sketch=0;exitX=1;exitY=0.5;exitDx=0;exitDy=0;" edge="1" parent="1" source="AEzqDcAyrqlaG8UT_i8C-21" target="AEzqDcAyrqlaG8UT_i8C-45">
          <mxGeometry relative="1" as="geometry">
            <mxPoint x="-210" y="-110" as="sourcePoint" />
            <mxPoint x="-70" y="-120" as="targetPoint" />
          </mxGeometry>
        </mxCell>
        <mxCell id="AEzqDcAyrqlaG8UT_i8C-45" value="" style="ellipse;whiteSpace=wrap;html=1;align=center;aspect=fixed;resizable=0;points=[];outlineConnect=0;sketch=0;" vertex="1" parent="1">
          <mxGeometry x="-70" y="-125" width="10" height="10" as="geometry" />
        </mxCell>
      </root>
    </mxGraphModel>
  </diagram>
</mxfile>
